<svg xmlns="http://www.w3.org/2000/svg" width="716" height="716" viewBox="0 0 716 716" version="1.1"><path d="M 175.324 125.429 C 165.875 128.407, 157.510 136.348, 154.033 145.640 C 152.062 150.909, 152 153.141, 152.010 218.788 L 152.020 286.500 154.438 291.695 C 157.922 299.177, 163.948 305.241, 171.253 308.615 L 177.500 311.500 246.500 311.500 C 299.276 311.500, 316.479 311.203, 319.663 310.235 C 330.410 306.969, 340.542 295.704, 342.883 284.418 C 343.799 280.002, 344.033 262.125, 343.805 214 L 343.500 149.500 340.906 144 C 337.597 136.986, 331.014 130.403, 324 127.094 L 318.500 124.500 249 124.307 C 193.896 124.153, 178.635 124.386, 175.324 125.429 M 398 124.925 C 388.123 127.981, 378.510 136.614, 374.826 145.738 L 372.500 151.500 372.500 217.500 C 372.500 278.164, 372.643 283.904, 374.275 288.500 C 378.057 299.154, 386.737 307.328, 397.633 310.496 C 402.354 311.868, 411.596 312.031, 470.768 311.783 L 538.500 311.500 544.120 308.865 C 551.728 305.297, 557.034 300.268, 561.101 292.768 L 564.500 286.500 564.500 218 L 564.500 149.500 561.852 143.852 C 558.480 136.660, 552.340 130.520, 545.148 127.148 L 539.500 124.500 470 124.326 C 431.775 124.230, 399.375 124.500, 398 124.925 M 181 143.711 C 177.276 145.137, 173.616 148.634, 171.905 152.401 C 170.155 156.255, 170.043 160.190, 170.022 218.128 C 169.998 284.398, 169.962 283.896, 175.163 288.625 C 180.040 293.059, 179.064 293, 247.533 293 C 320.115 293, 317.569 293.217, 322.270 286.627 L 324.500 283.500 324.771 218.929 L 325.042 154.358 322.771 151.021 C 321.522 149.186, 319.230 146.743, 317.677 145.592 C 314.886 143.523, 314.115 143.498, 248.677 143.318 C 212.280 143.218, 181.825 143.395, 181 143.711 M 402.208 143.701 C 398.745 144.380, 393.216 150.484, 392.011 154.959 C 391.291 157.634, 391.032 178.971, 391.220 220.216 C 391.493 279.975, 391.551 281.587, 393.554 284.997 C 394.684 286.920, 397.113 289.507, 398.952 290.747 L 402.296 293 468.413 293 C 530.853 293, 534.723 292.897, 537.983 291.149 C 539.882 290.130, 542.350 288.073, 543.468 286.576 C 545.455 283.915, 545.506 282.419, 545.771 219.106 L 546.042 154.358 543.771 151.021 C 542.522 149.186, 540.230 146.743, 538.677 145.592 C 535.885 143.522, 535.153 143.499, 470.177 143.376 C 434.055 143.307, 403.469 143.454, 402.208 143.701 M 463.597 184.165 C 462.719 185.419, 462 186.959, 462 187.588 C 462 189.528, 457.985 193.956, 454.662 195.680 C 452.900 196.595, 449.399 197.275, 446.755 197.217 C 442.983 197.135, 441.792 197.520, 440.949 199.095 C 438.359 203.935, 444.467 207.748, 452.701 206.432 C 457.048 205.737, 459.539 207.629, 460.880 212.643 C 461.532 215.082, 462.146 215.500, 465.072 215.500 L 468.500 215.500 468.438 210.765 C 468.393 207.329, 467.776 205.390, 466.188 203.700 C 463.590 200.935, 463.458 199.695, 465.573 197.939 C 468.274 195.698, 471.131 189.006, 470.808 185.676 C 470.556 183.079, 470.016 182.444, 467.847 182.193 C 465.992 181.978, 464.713 182.572, 463.597 184.165 M 484.200 189.200 C 481.483 191.917, 482.829 194.880, 487.964 197.482 C 493.551 200.313, 495 202.334, 495 207.299 C 495 211.634, 491.997 215.516, 487.492 217.003 C 479.221 219.732, 482.042 227.712, 490.525 225.583 C 491.914 225.234, 494.781 223.386, 496.896 221.475 C 499.012 219.564, 501.166 218, 501.684 218 C 502.202 218, 503.919 219.350, 505.500 221 C 508.810 224.455, 512.454 224.888, 513.995 222.009 C 515.543 219.116, 512.870 214.556, 507.993 211.771 C 504.558 209.810, 504.012 209.022, 503.991 206 C 503.953 200.523, 500.177 194.939, 494.016 191.250 C 488.177 187.754, 486.084 187.316, 484.200 189.200 M 427.750 218.080 C 426.702 218.690, 426 220.296, 426 222.082 C 426 232.661, 438.274 241.532, 449.431 239.016 C 453.443 238.111, 454.959 236.690, 454.985 233.809 C 455.008 231.275, 453.097 230.500, 446.825 230.500 C 439.896 230.500, 435.883 227.971, 434.857 222.958 C 434.480 221.110, 433.371 219.013, 432.394 218.299 C 430.294 216.763, 430.032 216.751, 427.750 218.080 M 175.863 339.553 C 166.047 342.605, 155.933 352.605, 153.099 362.063 C 152.348 364.571, 152 386.809, 152 432.329 C 152 497.005, 152.059 499.083, 154.049 504.401 C 156.779 511.699, 163.855 519.116, 171.500 522.693 L 177.500 525.500 247.500 525.500 L 317.500 525.500 323.762 522.608 C 333.416 518.149, 340.687 508.835, 342.971 498 C 343.801 494.064, 344.041 474.305, 343.815 428.500 L 343.500 364.500 340.699 358.500 C 337.061 350.705, 331.233 344.846, 323.617 341.327 L 317.500 338.500 249 338.306 C 191.763 338.144, 179.738 338.349, 175.863 339.553 M 396.059 339.650 C 383.369 344.091, 375.331 353.665, 372.999 367.111 C 372.245 371.460, 371.989 393.459, 372.197 436 L 372.502 498.500 374.805 504.202 C 377.863 511.775, 384.696 519.213, 391.798 522.700 L 397.500 525.500 468.500 525.500 L 539.500 525.500 545.012 522.914 C 551.970 519.650, 558.520 513.085, 561.887 506 L 564.500 500.500 564.500 432 L 564.500 363.500 562.126 358.720 C 557.349 349.103, 549.487 342.398, 539.101 339.085 C 536.790 338.347, 514.053 338.015, 468.101 338.048 C 409.615 338.089, 399.901 338.305, 396.059 339.650 M 177.990 359.250 C 176.172 360.488, 173.743 362.770, 172.592 364.323 C 170.529 367.106, 170.496 368.017, 170.215 429.823 C 169.897 499.933, 169.764 498.430, 176.761 503.767 L 180.344 506.500 247.599 506.500 C 313.966 506.500, 314.890 506.473, 317.615 504.438 C 319.134 503.304, 321.304 501.134, 322.438 499.615 C 324.471 496.892, 324.500 495.942, 324.500 432 C 324.500 367.763, 324.480 367.120, 322.408 364.323 C 321.257 362.770, 318.828 360.488, 317.010 359.250 L 313.704 357 247.500 357 L 181.296 357 177.990 359.250 M 398.952 359.253 C 397.113 360.493, 394.684 363.080, 393.554 365.003 C 391.540 368.431, 391.500 369.744, 391.500 432 C 391.500 502.580, 391.179 499.138, 398.235 504.171 L 401.500 506.500 468.573 506.500 L 535.647 506.500 539.239 504.038 C 546.263 499.225, 546 502.047, 546 431.614 L 546 368.296 543.726 364.922 C 542.476 363.066, 539.934 360.524, 538.078 359.274 L 534.704 357 468.500 357 L 402.296 357 398.952 359.253 M 429.684 555.449 C 419.783 558.980, 415.576 566.584, 415.547 581 C 415.518 594.991, 420.712 602.760, 431.604 605.022 C 437.995 606.348, 446.514 605.204, 450.711 602.454 C 452.988 600.962, 453.054 600.540, 452.781 589.206 L 452.500 577.500 443.691 577.210 L 434.881 576.920 435.191 581.210 C 435.491 585.381, 435.604 585.509, 439.250 585.810 C 442.890 586.112, 443 586.235, 443 590.025 C 443 594.446, 441.177 596, 435.989 596 C 431.059 596, 427.345 591.610, 426.491 584.774 C 425.346 575.606, 427.618 567.766, 432.091 565.453 C 435.836 563.516, 437.143 563.609, 442.456 566.191 L 446.965 568.382 449.482 566.016 C 454.067 561.710, 451.942 557.991, 443.436 555.431 C 437.616 553.679, 434.634 553.683, 429.684 555.449 M 284.500 556.573 C 276.526 560.720, 273.478 567.236, 273.543 580 C 273.567 584.675, 274.168 590.199, 274.879 592.275 C 279.862 606.829, 297.967 610.661, 307.983 599.282 C 312.750 593.867, 314.409 587.541, 313.789 577.153 C 313.134 566.196, 308.886 558.795, 301.685 556.067 C 297.530 554.492, 287.958 554.774, 284.500 556.573 M 128.503 559.250 C 128.179 561.038, 128.047 571.725, 128.207 583 L 128.500 603.500 133.500 603.500 L 138.500 603.500 138.500 589.221 C 138.500 581.368, 138.845 575.743, 139.268 576.721 C 139.690 577.700, 141.716 583, 143.771 588.500 L 147.507 598.500 151.241 598.810 C 155.481 599.161, 155.123 599.696, 161.491 583.500 L 165.030 574.500 164.645 588.152 C 164.434 595.661, 164.584 602.327, 164.980 602.967 C 165.403 603.652, 167.508 604, 170.099 603.815 L 174.500 603.500 174.500 580 L 174.500 556.500 168.910 556.205 C 165.202 556.009, 162.992 556.346, 162.345 557.205 C 161.809 557.917, 159.406 563.675, 157.006 570 C 154.606 576.325, 152.333 581.867, 151.955 582.317 C 151.576 582.766, 149.381 577.991, 147.076 571.707 C 141.447 556.359, 141.159 556, 134.489 556 C 129.186 556, 129.080 556.057, 128.503 559.250 M 183.460 557.244 C 183.185 557.960, 183.082 568.660, 183.230 581.023 L 183.500 603.500 195.827 604 C 210.994 604.615, 212 604.313, 212 599.139 C 212 594.359, 211.260 594, 201.418 594 L 194 594 194 589.500 L 194 585 201.393 585 C 209.226 585, 210 584.516, 210 579.618 C 210 575.975, 208.058 575, 200.800 575 L 194 575 194 570.500 L 194 566 201.878 566 C 210.820 566, 212.322 565.065, 211.818 559.815 L 211.500 556.500 197.729 556.222 C 187.145 556.008, 183.843 556.244, 183.460 557.244 M 219.486 558.250 C 219.183 559.487, 219.062 570.175, 219.217 582 L 219.500 603.500 224.500 603.500 L 229.500 603.500 229.227 589 L 228.954 574.500 231.967 582.500 C 233.624 586.900, 235.706 592.436, 236.593 594.802 C 238.168 599.005, 238.301 599.098, 242.317 598.802 C 246.106 598.524, 246.543 598.187, 247.895 594.500 C 248.701 592.300, 250.822 586.675, 252.607 582 L 255.852 573.500 255.676 588.500 L 255.500 603.500 260.500 603.500 L 265.500 603.500 265.783 582 C 265.938 570.175, 265.817 559.487, 265.514 558.250 C 265.027 556.265, 264.330 556, 259.603 556 C 256.132 556, 253.819 556.513, 253.036 557.456 C 252.372 558.257, 249.666 564.445, 247.023 571.206 C 241.550 585.210, 242.643 585.490, 236.447 568.500 C 234.441 563, 232.340 557.938, 231.778 557.250 C 231.191 556.533, 228.471 556, 225.397 556 C 220.670 556, 219.973 556.265, 219.486 558.250 M 323.381 556.765 C 322.629 557.259, 322.137 565.033, 321.881 580.500 L 321.500 603.500 326.500 603.500 L 331.500 603.500 331.788 595.955 L 332.077 588.411 335.363 588.794 C 338.332 589.141, 338.999 589.884, 342.262 596.478 C 345.815 603.659, 345.944 603.785, 350.187 604.223 C 355.118 604.732, 357 604.289, 357 602.619 C 357 601.977, 354.978 597.903, 352.506 593.566 C 348.032 585.714, 348.021 585.673, 350.114 584.207 C 352.774 582.344, 355.956 575.423, 355.956 571.500 C 355.956 569.850, 355.117 566.652, 354.091 564.394 C 351.274 558.191, 345.993 555.996, 333.934 556.015 C 328.745 556.024, 323.996 556.361, 323.381 556.765 M 358.447 557.276 C 358.178 557.978, 361.157 564.535, 365.068 571.846 L 372.177 585.140 372.339 594.320 L 372.500 603.500 377.750 603.802 L 383 604.105 383 594.275 C 383 587.713, 383.445 583.789, 384.339 582.473 C 388.217 576.758, 397.084 558.662, 396.611 557.429 C 396.241 556.465, 394.501 556, 391.262 556 L 386.462 556 382.023 565.677 L 377.584 575.354 375.542 570.873 C 374.419 568.408, 372.451 564.054, 371.169 561.196 L 368.837 556 363.887 556 C 360.795 556, 358.753 556.479, 358.447 557.276 M 471.703 556.750 C 470.889 558.219, 457 601.812, 457 602.896 C 457 603.567, 459.146 604, 462.470 604 L 467.939 604 469.322 599.250 L 470.704 594.500 478.257 594.210 L 485.811 593.919 486.454 597.730 C 487.452 603.635, 488.250 604.353, 493.593 604.151 C 496.217 604.051, 498.583 603.750, 498.853 603.481 C 499.353 602.980, 486.453 560.919, 484.828 557.750 C 484.126 556.382, 482.640 556, 478.024 556 C 474.776 556, 471.931 556.337, 471.703 556.750 M 504.956 558.617 C 504.376 560.140, 504.073 570.058, 504.230 582.367 L 504.500 603.500 509.500 603.500 L 514.500 603.500 515 590.197 L 515.500 576.895 519.500 587.697 L 523.500 598.500 527.471 598.500 L 531.443 598.500 536.124 586 L 540.806 573.500 540.653 588.500 L 540.500 603.500 545.500 603.500 L 550.500 603.500 550.783 582 C 550.938 570.175, 550.817 559.487, 550.514 558.250 C 550.027 556.265, 549.330 556, 544.603 556 C 541.534 556, 538.804 556.534, 538.212 557.250 C 537.644 557.938, 534.970 564.044, 532.269 570.819 L 527.358 583.138 523.069 571.819 C 517.130 556.146, 517.018 556, 510.952 556 C 506.478 556, 505.846 556.276, 504.956 558.617 M 559.493 558.222 C 559.186 559.475, 559.062 570.175, 559.217 582 L 559.500 603.500 571.500 604.015 C 586.679 604.667, 588 604.276, 588 599.132 C 588 594.343, 587.276 594, 577.161 594 L 569.486 594 569.843 589.500 L 570.201 585 577.492 585 C 584.380 585, 584.817 584.866, 585.393 582.569 C 585.729 581.233, 585.564 578.983, 585.026 577.569 C 584.105 575.147, 583.648 575, 577.025 575 L 570 575 570 570.500 L 570 566 577.878 566 C 586.820 566, 588.322 565.065, 587.818 559.815 L 587.500 556.500 573.776 556.222 C 560.219 555.947, 560.045 555.972, 559.493 558.222 M 289.117 565.631 C 285.832 567.931, 283.999 572.983, 284.006 579.718 C 284.017 591.099, 286.955 596, 293.768 596 C 297.997 596, 301.628 592.499, 302.562 587.523 C 303.530 582.363, 302.570 570.885, 300.954 568.297 C 298.341 564.114, 293 562.911, 289.117 565.631 M 332 572 L 332 579 336.309 579 C 341.575 579, 343.779 577.489, 344.598 573.316 C 345.495 568.750, 341.638 565, 336.045 565 L 332 565 332 572 M 476.209 576.225 C 474.994 580.407, 474 584.091, 474 584.414 C 474 584.736, 476.034 585, 478.519 585 C 483.628 585, 483.515 585.793, 480.069 574.185 L 478.418 568.624 476.209 576.225" stroke="none" fill="#202a33" fill-rule="evenodd"/><path d="M 0 358.001 L 0 716.003 358.250 715.751 L 716.500 715.500 716.751 357.750 L 717.003 0 358.501 0 L 0 0 0 358.001 M 0.494 358.500 C 0.494 555.400, 0.609 635.801, 0.750 537.169 C 0.891 438.537, 0.890 277.437, 0.750 179.169 C 0.609 80.901, 0.494 161.600, 0.494 358.500 M 175.324 125.429 C 165.875 128.407, 157.510 136.348, 154.033 145.640 C 152.062 150.909, 152 153.141, 152.010 218.788 L 152.020 286.500 154.438 291.695 C 157.922 299.177, 163.948 305.241, 171.253 308.615 L 177.500 311.500 246.500 311.500 C 299.276 311.500, 316.479 311.203, 319.663 310.235 C 330.410 306.969, 340.542 295.704, 342.883 284.418 C 343.799 280.002, 344.033 262.125, 343.805 214 L 343.500 149.500 340.906 144 C 337.597 136.986, 331.014 130.403, 324 127.094 L 318.500 124.500 249 124.307 C 193.896 124.153, 178.635 124.386, 175.324 125.429 M 398 124.925 C 388.123 127.981, 378.510 136.614, 374.826 145.738 L 372.500 151.500 372.500 217.500 C 372.500 278.164, 372.643 283.904, 374.275 288.500 C 378.057 299.154, 386.737 307.328, 397.633 310.496 C 402.354 311.868, 411.596 312.031, 470.768 311.783 L 538.500 311.500 544.120 308.865 C 551.728 305.297, 557.034 300.268, 561.101 292.768 L 564.500 286.500 564.500 218 L 564.500 149.500 561.852 143.852 C 558.480 136.660, 552.340 130.520, 545.148 127.148 L 539.500 124.500 470 124.326 C 431.775 124.230, 399.375 124.500, 398 124.925 M 181 143.711 C 177.276 145.137, 173.616 148.634, 171.905 152.401 C 170.155 156.255, 170.043 160.190, 170.022 218.128 C 169.998 284.398, 169.962 283.896, 175.163 288.625 C 180.040 293.059, 179.064 293, 247.533 293 C 320.115 293, 317.569 293.217, 322.270 286.627 L 324.500 283.500 324.771 218.929 L 325.042 154.358 322.771 151.021 C 321.522 149.186, 319.230 146.743, 317.677 145.592 C 314.886 143.523, 314.115 143.498, 248.677 143.318 C 212.280 143.218, 181.825 143.395, 181 143.711 M 402.208 143.701 C 398.745 144.380, 393.216 150.484, 392.011 154.959 C 391.291 157.634, 391.032 178.971, 391.220 220.216 C 391.493 279.975, 391.551 281.587, 393.554 284.997 C 394.684 286.920, 397.113 289.507, 398.952 290.747 L 402.296 293 468.413 293 C 530.853 293, 534.723 292.897, 537.983 291.149 C 539.882 290.130, 542.350 288.073, 543.468 286.576 C 545.455 283.915, 545.506 282.419, 545.771 219.106 L 546.042 154.358 543.771 151.021 C 542.522 149.186, 540.230 146.743, 538.677 145.592 C 535.885 143.522, 535.153 143.499, 470.177 143.376 C 434.055 143.307, 403.469 143.454, 402.208 143.701 M 463.597 184.165 C 462.719 185.419, 462 186.959, 462 187.588 C 462 189.528, 457.985 193.956, 454.662 195.680 C 452.900 196.595, 449.399 197.275, 446.755 197.217 C 442.983 197.135, 441.792 197.520, 440.949 199.095 C 438.359 203.935, 444.467 207.748, 452.701 206.432 C 457.048 205.737, 459.539 207.629, 460.880 212.643 C 461.532 215.082, 462.146 215.500, 465.072 215.500 L 468.500 215.500 468.438 210.765 C 468.393 207.329, 467.776 205.390, 466.188 203.700 C 463.590 200.935, 463.458 199.695, 465.573 197.939 C 468.274 195.698, 471.131 189.006, 470.808 185.676 C 470.556 183.079, 470.016 182.444, 467.847 182.193 C 465.992 181.978, 464.713 182.572, 463.597 184.165 M 484.200 189.200 C 481.483 191.917, 482.829 194.880, 487.964 197.482 C 493.551 200.313, 495 202.334, 495 207.299 C 495 211.634, 491.997 215.516, 487.492 217.003 C 479.221 219.732, 482.042 227.712, 490.525 225.583 C 491.914 225.234, 494.781 223.386, 496.896 221.475 C 499.012 219.564, 501.166 218, 501.684 218 C 502.202 218, 503.919 219.350, 505.500 221 C 508.810 224.455, 512.454 224.888, 513.995 222.009 C 515.543 219.116, 512.870 214.556, 507.993 211.771 C 504.558 209.810, 504.012 209.022, 503.991 206 C 503.953 200.523, 500.177 194.939, 494.016 191.250 C 488.177 187.754, 486.084 187.316, 484.200 189.200 M 427.750 218.080 C 426.702 218.690, 426 220.296, 426 222.082 C 426 232.661, 438.274 241.532, 449.431 239.016 C 453.443 238.111, 454.959 236.690, 454.985 233.809 C 455.008 231.275, 453.097 230.500, 446.825 230.500 C 439.896 230.500, 435.883 227.971, 434.857 222.958 C 434.480 221.110, 433.371 219.013, 432.394 218.299 C 430.294 216.763, 430.032 216.751, 427.750 218.080 M 175.863 339.553 C 166.047 342.605, 155.933 352.605, 153.099 362.063 C 152.348 364.571, 152 386.809, 152 432.329 C 152 497.005, 152.059 499.083, 154.049 504.401 C 156.779 511.699, 163.855 519.116, 171.500 522.693 L 177.500 525.500 247.500 525.500 L 317.500 525.500 323.762 522.608 C 333.416 518.149, 340.687 508.835, 342.971 498 C 343.801 494.064, 344.041 474.305, 343.815 428.500 L 343.500 364.500 340.699 358.500 C 337.061 350.705, 331.233 344.846, 323.617 341.327 L 317.500 338.500 249 338.306 C 191.763 338.144, 179.738 338.349, 175.863 339.553 M 396.059 339.650 C 383.369 344.091, 375.331 353.665, 372.999 367.111 C 372.245 371.460, 371.989 393.459, 372.197 436 L 372.502 498.500 374.805 504.202 C 377.863 511.775, 384.696 519.213, 391.798 522.700 L 397.500 525.500 468.500 525.500 L 539.500 525.500 545.012 522.914 C 551.970 519.650, 558.520 513.085, 561.887 506 L 564.500 500.500 564.500 432 L 564.500 363.500 562.126 358.720 C 557.349 349.103, 549.487 342.398, 539.101 339.085 C 536.790 338.347, 514.053 338.015, 468.101 338.048 C 409.615 338.089, 399.901 338.305, 396.059 339.650 M 177.990 359.250 C 176.172 360.488, 173.743 362.770, 172.592 364.323 C 170.529 367.106, 170.496 368.017, 170.215 429.823 C 169.897 499.933, 169.764 498.430, 176.761 503.767 L 180.344 506.500 247.599 506.500 C 313.966 506.500, 314.890 506.473, 317.615 504.438 C 319.134 503.304, 321.304 501.134, 322.438 499.615 C 324.471 496.892, 324.500 495.942, 324.500 432 C 324.500 367.763, 324.480 367.120, 322.408 364.323 C 321.257 362.770, 318.828 360.488, 317.010 359.250 L 313.704 357 247.500 357 L 181.296 357 177.990 359.250 M 398.952 359.253 C 397.113 360.493, 394.684 363.080, 393.554 365.003 C 391.540 368.431, 391.500 369.744, 391.500 432 C 391.500 502.580, 391.179 499.138, 398.235 504.171 L 401.500 506.500 468.573 506.500 L 535.647 506.500 539.239 504.038 C 546.263 499.225, 546 502.047, 546 431.614 L 546 368.296 543.726 364.922 C 542.476 363.066, 539.934 360.524, 538.078 359.274 L 534.704 357 468.500 357 L 402.296 357 398.952 359.253 M 429.684 555.449 C 419.783 558.980, 415.576 566.584, 415.547 581 C 415.518 594.991, 420.712 602.760, 431.604 605.022 C 437.995 606.348, 446.514 605.204, 450.711 602.454 C 452.988 600.962, 453.054 600.540, 452.781 589.206 L 452.500 577.500 443.691 577.210 L 434.881 576.920 435.191 581.210 C 435.491 585.381, 435.604 585.509, 439.250 585.810 C 442.890 586.112, 443 586.235, 443 590.025 C 443 594.446, 441.177 596, 435.989 596 C 431.059 596, 427.345 591.610, 426.491 584.774 C 425.346 575.606, 427.618 567.766, 432.091 565.453 C 435.836 563.516, 437.143 563.609, 442.456 566.191 L 446.965 568.382 449.482 566.016 C 454.067 561.710, 451.942 557.991, 443.436 555.431 C 437.616 553.679, 434.634 553.683, 429.684 555.449 M 284.500 556.573 C 276.526 560.720, 273.478 567.236, 273.543 580 C 273.567 584.675, 274.168 590.199, 274.879 592.275 C 279.862 606.829, 297.967 610.661, 307.983 599.282 C 312.750 593.867, 314.409 587.541, 313.789 577.153 C 313.134 566.196, 308.886 558.795, 301.685 556.067 C 297.530 554.492, 287.958 554.774, 284.500 556.573 M 128.503 559.250 C 128.179 561.038, 128.047 571.725, 128.207 583 L 128.500 603.500 133.500 603.500 L 138.500 603.500 138.500 589.221 C 138.500 581.368, 138.845 575.743, 139.268 576.721 C 139.690 577.700, 141.716 583, 143.771 588.500 L 147.507 598.500 151.241 598.810 C 155.481 599.161, 155.123 599.696, 161.491 583.500 L 165.030 574.500 164.645 588.152 C 164.434 595.661, 164.584 602.327, 164.980 602.967 C 165.403 603.652, 167.508 604, 170.099 603.815 L 174.500 603.500 174.500 580 L 174.500 556.500 168.910 556.205 C 165.202 556.009, 162.992 556.346, 162.345 557.205 C 161.809 557.917, 159.406 563.675, 157.006 570 C 154.606 576.325, 152.333 581.867, 151.955 582.317 C 151.576 582.766, 149.381 577.991, 147.076 571.707 C 141.447 556.359, 141.159 556, 134.489 556 C 129.186 556, 129.080 556.057, 128.503 559.250 M 183.460 557.244 C 183.185 557.960, 183.082 568.660, 183.230 581.023 L 183.500 603.500 195.827 604 C 210.994 604.615, 212 604.313, 212 599.139 C 212 594.359, 211.260 594, 201.418 594 L 194 594 194 589.500 L 194 585 201.393 585 C 209.226 585, 210 584.516, 210 579.618 C 210 575.975, 208.058 575, 200.800 575 L 194 575 194 570.500 L 194 566 201.878 566 C 210.820 566, 212.322 565.065, 211.818 559.815 L 211.500 556.500 197.729 556.222 C 187.145 556.008, 183.843 556.244, 183.460 557.244 M 219.486 558.250 C 219.183 559.487, 219.062 570.175, 219.217 582 L 219.500 603.500 224.500 603.500 L 229.500 603.500 229.227 589 L 228.954 574.500 231.967 582.500 C 233.624 586.900, 235.706 592.436, 236.593 594.802 C 238.168 599.005, 238.301 599.098, 242.317 598.802 C 246.106 598.524, 246.543 598.187, 247.895 594.500 C 248.701 592.300, 250.822 586.675, 252.607 582 L 255.852 573.500 255.676 588.500 L 255.500 603.500 260.500 603.500 L 265.500 603.500 265.783 582 C 265.938 570.175, 265.817 559.487, 265.514 558.250 C 265.027 556.265, 264.330 556, 259.603 556 C 256.132 556, 253.819 556.513, 253.036 557.456 C 252.372 558.257, 249.666 564.445, 247.023 571.206 C 241.550 585.210, 242.643 585.490, 236.447 568.500 C 234.441 563, 232.340 557.938, 231.778 557.250 C 231.191 556.533, 228.471 556, 225.397 556 C 220.670 556, 219.973 556.265, 219.486 558.250 M 323.381 556.765 C 322.629 557.259, 322.137 565.033, 321.881 580.500 L 321.500 603.500 326.500 603.500 L 331.500 603.500 331.788 595.955 L 332.077 588.411 335.363 588.794 C 338.332 589.141, 338.999 589.884, 342.262 596.478 C 345.815 603.659, 345.944 603.785, 350.187 604.223 C 355.118 604.732, 357 604.289, 357 602.619 C 357 601.977, 354.978 597.903, 352.506 593.566 C 348.032 585.714, 348.021 585.673, 350.114 584.207 C 352.774 582.344, 355.956 575.423, 355.956 571.500 C 355.956 569.850, 355.117 566.652, 354.091 564.394 C 351.274 558.191, 345.993 555.996, 333.934 556.015 C 328.745 556.024, 323.996 556.361, 323.381 556.765 M 358.447 557.276 C 358.178 557.978, 361.157 564.535, 365.068 571.846 L 372.177 585.140 372.339 594.320 L 372.500 603.500 377.750 603.802 L 383 604.105 383 594.275 C 383 587.713, 383.445 583.789, 384.339 582.473 C 388.217 576.758, 397.084 558.662, 396.611 557.429 C 396.241 556.465, 394.501 556, 391.262 556 L 386.462 556 382.023 565.677 L 377.584 575.354 375.542 570.873 C 374.419 568.408, 372.451 564.054, 371.169 561.196 L 368.837 556 363.887 556 C 360.795 556, 358.753 556.479, 358.447 557.276 M 471.703 556.750 C 470.889 558.219, 457 601.812, 457 602.896 C 457 603.567, 459.146 604, 462.470 604 L 467.939 604 469.322 599.250 L 470.704 594.500 478.257 594.210 L 485.811 593.919 486.454 597.730 C 487.452 603.635, 488.250 604.353, 493.593 604.151 C 496.217 604.051, 498.583 603.750, 498.853 603.481 C 499.353 602.980, 486.453 560.919, 484.828 557.750 C 484.126 556.382, 482.640 556, 478.024 556 C 474.776 556, 471.931 556.337, 471.703 556.750 M 504.956 558.617 C 504.376 560.140, 504.073 570.058, 504.230 582.367 L 504.500 603.500 509.500 603.500 L 514.500 603.500 515 590.197 L 515.500 576.895 519.500 587.697 L 523.500 598.500 527.471 598.500 L 531.443 598.500 536.124 586 L 540.806 573.500 540.653 588.500 L 540.500 603.500 545.500 603.500 L 550.500 603.500 550.783 582 C 550.938 570.175, 550.817 559.487, 550.514 558.250 C 550.027 556.265, 549.330 556, 544.603 556 C 541.534 556, 538.804 556.534, 538.212 557.250 C 537.644 557.938, 534.970 564.044, 532.269 570.819 L 527.358 583.138 523.069 571.819 C 517.130 556.146, 517.018 556, 510.952 556 C 506.478 556, 505.846 556.276, 504.956 558.617 M 559.493 558.222 C 559.186 559.475, 559.062 570.175, 559.217 582 L 559.500 603.500 571.500 604.015 C 586.679 604.667, 588 604.276, 588 599.132 C 588 594.343, 587.276 594, 577.161 594 L 569.486 594 569.843 589.500 L 570.201 585 577.492 585 C 584.380 585, 584.817 584.866, 585.393 582.569 C 585.729 581.233, 585.564 578.983, 585.026 577.569 C 584.105 575.147, 583.648 575, 577.025 575 L 570 575 570 570.500 L 570 566 577.878 566 C 586.820 566, 588.322 565.065, 587.818 559.815 L 587.500 556.500 573.776 556.222 C 560.219 555.947, 560.045 555.972, 559.493 558.222 M 289.117 565.631 C 285.832 567.931, 283.999 572.983, 284.006 579.718 C 284.017 591.099, 286.955 596, 293.768 596 C 297.997 596, 301.628 592.499, 302.562 587.523 C 303.530 582.363, 302.570 570.885, 300.954 568.297 C 298.341 564.114, 293 562.911, 289.117 565.631 M 332 572 L 332 579 336.309 579 C 341.575 579, 343.779 577.489, 344.598 573.316 C 345.495 568.750, 341.638 565, 336.045 565 L 332 565 332 572 M 476.209 576.225 C 474.994 580.407, 474 584.091, 474 584.414 C 474 584.736, 476.034 585, 478.519 585 C 483.628 585, 483.515 585.793, 480.069 574.185 L 478.418 568.624 476.209 576.225" stroke="none" fill="#eda655" fill-rule="evenodd"/></svg>